<svg width="190" height="196" viewBox="0 0 190 196" fill="none" xmlns="http://www.w3.org/2000/svg">
<path d="M96.7254 53.3719L63.3443 11.719L69.2787 10.2314L110.82 44.4463L105.627 8H110.82L127.139 46.6777L142.717 21.3884H145.684L142.717 53.3719L167.939 42.2149L170.164 44.4463L152.361 68.2479L182.775 71.9669V77.1736L156.07 83.124L185 105.438V109.157L152.361 97.2562L175.357 140.397L173.131 144.116L142.717 107.669L150.135 168.661L147.168 171.636L127.139 112.876L95.2418 188H88.5656L105.627 107.669L21.8033 153.041L18.8361 147.835L88.5656 90.562L4 80.1488L5.48361 74.9421L86.3402 68.2479L27.7377 35.5207L30.7049 31.8017L96.7254 53.3719Z" fill="#D7DAE0"/>
</svg>
