<?xml version="1.0" encoding="utf-8"?>
<svg version="1.1" xmlns="http://www.w3.org/2000/svg" xmlns:xlink="http://www.w3.org/1999/xlink" x="0px" y="0px"
    viewBox="0 0 1000 1000" enable-background="new 0 0 1000 1000" xml:space="preserve">
    <g>
        <g transform="translate(0.000000,511.000000) scale(0.100000,-0.100000)" style="fill: #A157FF">
            <path
                d="M6015.9,3130.7c-632.6-76.7-1343.8-310.6-1930.4-632.6c-237.7-130.4-671-423.7-901-609.6C2471.3,1313.4,1756.3,445,1175.4-548c-373.8-638.4-766.8-1489.5-1000.7-2170L100-2936.6l4173.3,1.9c3688.3,1.9,4150.3,5.8,3974,28.8c-1248,168.7-2095.3,868.4-2361.8,1943.8c-63.3,258.8-65.2,734.2-1.9,983.4c172.5,692,636.5,1159.8,1322.7,1330.4c184.1,46,638.4,46,809-1.9c389.1-107.4,730.4-360.4,1002.6-743.8c186-260.7,371.9-692,463.9-1069.7l36.4-143.8l90.1,189.8c109.3,226.2,195.5,481.2,251.1,736.1c32.6,149.5,42.2,249.2,40.3,502.3c0,279.9-5.7,337.4-49.8,504.2c-201.3,751.5-803.2,1284.4-1834.6,1619.9c-343.1,113.1-519.5,153.4-799.4,186C6918.8,3165.2,6307.3,3165.2,6015.9,3130.7z" />
            <path
                d="M7449.8,1096.8c-30.7-5.7-120.8-23-199.4-38.3l-141.9-30.7l153.4-72.8c174.4-82.4,297.1-182.1,356.6-295.2c38.3-72.9,42.2-105.4,42.2-414.1c0-391.1,21.1-479.3,149.5-624.9c164.9-186,358.5-210.9,575.1-69c38.3,26.8,95.9,82.4,126.6,122.7l55.6,74.8l13.4-101.6c32.6-235.8,138-402.6,306.7-486.9c90.1-42.2,124.6-49.9,230-42.2c67.1,3.8,126.5,11.5,132.3,17.2c17.2,15.3-78.6,429.4-147.6,634.5c-232,692-646,1161.7-1138.7,1288.2C7842.8,1091,7551.4,1112.1,7449.8,1096.8z" />
        </g>
    </g>
</svg>